<svg xmlns="http://www.w3.org/2000/svg" viewBox="0 0 8.4666667 8.4666667" version="1.1" x="0px" y="0px"><g><path style="color:#4f46e5;font-style:normal;font-variant:normal;font-weight:normal;font-stretch:normal;font-size:medium;line-height:normal;font-family:sans-serif;font-variant-ligatures:normal;font-variant-position:normal;font-variant-caps:normal;font-variant-numeric:normal;font-variant-alternates:normal;font-feature-settings:normal;text-indent:0;text-align:start;text-decoration:none;text-decoration-line:none;text-decoration-style:solid;text-decoration-color:#4f46e5;letter-spacing:normal;word-spacing:normal;text-transform:none;writing-mode:lr-tb;direction:ltr;text-orientation:mixed;dominant-baseline:auto;baseline-shift:baseline;text-anchor:start;white-space:normal;shape-padding:0;clip-rule:nonzero;display:inline;overflow:visible;visibility:visible;opacity:1;isolation:auto;mix-blend-mode:normal;color-interpolation:sRGB;color-interpolation-filters:linearRGB;solid-color:#4f46e5;solid-opacity:1;vector-effect:none;fill:#4f46e5;fill-opacity:1;fill-rule:nonzero;stroke:none;stroke-width:0.52916664;stroke-linecap:round;stroke-linejoin:round;stroke-miterlimit:4;stroke-dasharray:none;stroke-dashoffset:0;stroke-opacity:1;paint-order:normal;color-rendering:auto;image-rendering:auto;shape-rendering:auto;text-rendering:auto;enable-background:accumulate" d="M 1.4394466,3.2620248e-7 C 1.2933267,-5.556738e-4 1.174414,0.11743033 1.1738298,0.26355033 V 8.2010503 c -5.556e-4,0.146927 0.1186892,0.266177 0.2656168,0.265616 h 5.5898388 c 0.1461214,-5.82e-4 0.2641097,-0.119496 0.2635514,-0.265616 v -6.140711 c -7.67e-5,-0.05701 -0.018574,-0.112475 -0.05271,-0.15813 -5.291e-4,-5.29e-4 -0.00106,-10e-4 -0.00159,-0.0016 -0.00487,-0.0066 -0.010028,-0.01299 -0.015505,-0.01912 -0.0027,-0.0028 -0.00545,-0.0056 -0.00828,-0.0083 L 5.4200822,0.07803133 C 5.3709342,0.02860133 5.3042672,5.613262e-4 5.2345637,1.3262025e-6 Z M 1.7029965,0.52916633 H 4.9689469 V 2.0603393 c 2.911e-4,0.146322 0.1192959,0.264624 0.2656168,0.264067 h 1.5291065 v 5.613094 H 1.7029965 Z m 3.7951171,0.375171 0.8903853,0.89038497 H 5.4981136 Z M 2.4688411,1.7947223 c -0.3531222,0 -0.3531222,0.529684 0,0.529684 h 1.6288411 c 0.3531222,0 0.3531222,-0.529684 0,-0.529684 z m -0.027389,1.162203 c -0.3447195,0.02545 -0.3181159,0.539447 0.027389,0.529167 h 3.5310511 c 0.3606958,0.008 0.3606958,-0.537173 0,-0.529167 H 2.4688411 c -0.00912,-4.76e-4 -0.018264,-4.76e-4 -0.027389,0 z m 0.027389,1.160136 c -0.3606948,-0.008 -0.3606948,0.537173 0,0.529167 h 3.5310511 c 0.3606958,0.008 0.3606958,-0.537173 0,-0.529167 z m -0.027389,1.162203 c -0.3447195,0.02544 -0.3181159,0.539447 0.027389,0.529167 h 3.5310511 c 0.3606958,0.008 0.3606958,-0.537173 0,-0.529167 H 2.4688411 c -0.00912,-4.76e-4 -0.018264,-4.76e-4 -0.027389,0 z m 2.5243938,1.144633 c -0.00881,2.5e-4 -0.017611,9.53e-4 -0.026355,0.0021 -0.058349,0.0075 -0.1125355,0.03423 -0.1539959,0.07596 l -0.4335653,0.433566 c -0.2705243,0.249581 0.1261967,0.64466 0.3746542,0.373103 L 4.990134,7.0450453 c 0,0 0.057272,0.303568 0.3457151,0.380855 0.5092034,0.136437 0.8867664,-0.275435 0.8867664,-0.275435 0.2618264,-0.237021 -0.093705,-0.629762 -0.3555312,-0.392741 0,0 -0.2830626,0.187932 -0.3942924,0.15813 C 5.2752228,6.8629143 5.2304294,6.6388683 5.2304294,6.6388683 5.2062941,6.5123753 5.0946005,6.4216253 4.965846,6.4238943 Z"/></g><text x="0" y="23.4666669" fill="#000000" font-size="5px" font-weight="bold" font-family="'Helvetica Neue', Helvetica, Arial-Unicode, Arial, Sans-serif">Created by Larea</text><text x="0" y="28.4666669" fill="#000000" font-size="5px" font-weight="bold" font-family="'Helvetica Neue', Helvetica, Arial-Unicode, Arial, Sans-serif">from the Noun Project</text></svg>
