<?xml version="1.0" standalone="no"?>
<!DOCTYPE svg PUBLIC "-//W3C//DTD SVG 20010904//EN"
 "http://www.w3.org/TR/2001/REC-SVG-20010904/DTD/svg10.dtd">
<svg version="1.0" xmlns="http://www.w3.org/2000/svg"
 width="700.000000pt" height="700.000000pt" viewBox="0 0 700.000000 700.000000"
 preserveAspectRatio="xMidYMid meet">
<metadata>
Created by potrace 1.14, written by Peter Selinger 2001-2017
</metadata>
<g transform="translate(0.000000,700.000000) scale(0.100000,-0.100000)"
fill="#000000" stroke="none">
<path d="M1093 6975 c-51 -26 -91 -72 -112 -128 -15 -40 -15 -6654 0 -6694 21
-56 61 -102 112 -128 l51 -25 2350 0 c1970 0 2357 3 2391 14 48 17 98 63 125
116 20 39 20 51 17 2632 -2 2571 -2 2593 -22 2631 -11 21 -364 382 -790 808
-718 717 -773 771 -819 784 -43 13 -270 15 -1651 15 l-1601 0 -51 -25z m3000
-414 c16 -1 17 -39 17 -648 0 -390 4 -662 10 -683 14 -50 62 -105 116 -130
l46 -23 654 0 654 0 0 -1991 c1 -2561 0 -2639 -6 -2645 -2 -3 -943 -5 -2089
-5 l-2085 -1 0 250 c0 560 0 5012 0 5430 l0 450 1332 -2 c733 -1 1341 -2 1351
-2z m826 -682 c193 -193 351 -354 351 -358 0 -7 -719 -8 -721 -1 -1 3 -2 168
-3 367 -1 266 2 359 10 352 6 -5 170 -167 363 -360z"/>
<path d="M1973 5505 c-57 -17 -91 -43 -118 -89 -72 -126 -13 -291 117 -327 61
-16 1450 -16 1493 1 48 19 94 58 115 101 58 112 11 259 -96 306 -35 15 -105
17 -756 18 -505 1 -729 -2 -755 -10z"/>
<path d="M1973 4547 c-87 -17 -156 -109 -155 -208 1 -104 54 -179 147 -209 55
-18 3035 -18 3080 0 114 45 168 179 120 297 -18 45 -69 97 -114 115 -31 13
-3013 18 -3078 5z"/>
<path d="M1986 3592 c-63 -8 -136 -75 -157 -145 -26 -88 5 -196 69 -244 63
-46 20 -45 1600 -44 823 0 1507 2 1519 5 80 17 136 72 157 153 20 80 5 151
-46 208 -65 75 79 68 -1603 69 -830 1 -1523 0 -1539 -2z"/>
<path d="M1973 2627 c-87 -17 -155 -108 -155 -208 0 -103 53 -179 147 -209 55
-18 3035 -18 3080 0 114 45 168 179 120 297 -18 45 -69 97 -114 115 -31 13
-3013 18 -3078 5z"/>
<path d="M4047 1680 c-16 -5 -43 -20 -60 -33 -67 -52 -426 -421 -442 -454 -36
-75 -24 -157 31 -222 49 -57 95 -82 158 -86 82 -5 119 18 262 160 l127 126 23
-57 c76 -187 216 -275 439 -275 191 0 387 86 549 240 105 100 115 213 26 314
-68 77 -170 100 -254 56 -22 -12 -43 -24 -46 -28 -10 -14 -150 -90 -213 -115
-77 -31 -108 -32 -162 -7 -79 36 -123 96 -164 222 -42 128 -157 194 -274 159z"/>
</g>
</svg>
